<svg xmlns="http://www.w3.org/2000/svg" width="23" height="20" viewBox="0 0 23 20">
    <g fill="none" fill-rule="evenodd">
        <path fill="#000" fill-rule="nonzero" d="M21.055 12.106l1.73-8.269c.135-.617-.068-.679-.678-.679H6.5L6.106 1.58c-.09-.46-.39-1.053-.842-1.053H.95C.425.526 0 .442 0 .986v.659c0 .545.425.46.95.46h2.94L6.5 16.844h13.8l.228-1.053c0-.526-.443-.526-1.053-.526H8.422l-.527-2.632h12.08c.443 0 .981-.077 1.08-.527z"/>
        <path fill="#FFF" d="M6.527 5.79c-.025-.29-.21-1.053.842-1.053 1.053 0 11.643-.026 12.106 0 .71.04 1.053.527 1.053 1.053 0 .526-.955 4.445-1.053 4.737-.097.292-.4.527-1.052.527H7.895c-.22 0-.396-.176-.526-.527-.545-2.965-.826-4.544-.842-4.737z"/>
        <circle cx="6.843" cy="18.212" r="1.579" fill="#000"/>
        <circle cx="20.002" cy="18.212" r="1.579" fill="#000"/>
    </g>
</svg>
