<svg xmlns="http://www.w3.org/2000/svg" width="148" height="55" viewBox="0 0 148 55">
    <defs>
        <radialGradient id="a" cx="45.547%" cy="568.495%" r="602.641%" fx="45.547%" fy="568.495%" gradientTransform="matrix(.36301 0 0 1 .29 0)">
            <stop offset="0%" stop-color="#00050D"/>
            <stop offset="70%" stop-color="#051125"/>
            <stop offset="90%" stop-color="#173E7E"/>
            <stop offset="95%" stop-color="#4CA9E3"/>
            <stop offset="100%" stop-color="#4CA9E3"/>
        </radialGradient>
        <linearGradient id="b" x1="49.919%" x2="49.919%" y1="202.113%" y2="-21.934%">
            <stop offset="0%" stop-color="#08142E"/>
            <stop offset="81%" stop-color="#17326E"/>
            <stop offset="100%" stop-color="#0D69A9"/>
        </linearGradient>
        <linearGradient id="c" x1="50.055%" x2="50.055%" y1="110.548%" y2="-90.207%">
            <stop offset="0%" stop-color="#08142E"/>
            <stop offset="81%" stop-color="#17326E"/>
            <stop offset="100%" stop-color="#0D69A9"/>
        </linearGradient>
        <linearGradient id="d" x1="45.133%" x2="45.133%" y1="310.445%" y2="-435.061%">
            <stop offset="0%" stop-color="#08142E"/>
            <stop offset="81%" stop-color="#17326E"/>
            <stop offset="100%" stop-color="#0D69A9"/>
        </linearGradient>
        <linearGradient id="e" x1="-77.77%" x2="-77.77%" y1="1514.23%" y2="-1696.57%">
            <stop offset="0%" stop-color="#08142E"/>
            <stop offset="81%" stop-color="#17326E"/>
            <stop offset="100%" stop-color="#0D69A9"/>
        </linearGradient>
        <linearGradient id="f" x1="-28.017%" x2="-28.017%" y1="1043.44%" y2="-884.787%">
            <stop offset="0%" stop-color="#08142E"/>
            <stop offset="81%" stop-color="#17326E"/>
            <stop offset="100%" stop-color="#0D69A9"/>
        </linearGradient>
        <linearGradient id="g" x1="182%" x2="182%" y1="499.535%" y2="-914.419%">
            <stop offset="0%" stop-color="#08142E"/>
            <stop offset="81%" stop-color="#17326E"/>
            <stop offset="100%" stop-color="#0D69A9"/>
        </linearGradient>
        <linearGradient id="h" x1="40.643%" x2="40.643%" y1="207.054%" y2="-182.916%">
            <stop offset="0%" stop-color="#08142E"/>
            <stop offset="81%" stop-color="#17326E"/>
            <stop offset="100%" stop-color="#0D69A9"/>
        </linearGradient>
        <linearGradient id="i" x1="51.441%" x2="51.441%" y1="168.121%" y2="-190.358%">
            <stop offset="0%" stop-color="#08142E"/>
            <stop offset="81%" stop-color="#17326E"/>
            <stop offset="100%" stop-color="#0D69A9"/>
        </linearGradient>
        <linearGradient id="j" x1="53.249%" x2="53.249%" y1="94.62%" y2="-288.848%">
            <stop offset="0%" stop-color="#08142E"/>
            <stop offset="81%" stop-color="#17326E"/>
            <stop offset="100%" stop-color="#0D69A9"/>
        </linearGradient>
        <linearGradient id="k" x1="58.011%" x2="58.011%" y1="52.124%" y2="-369.337%">
            <stop offset="0%" stop-color="#08142E"/>
            <stop offset="81%" stop-color="#17326E"/>
            <stop offset="100%" stop-color="#0D69A9"/>
        </linearGradient>
        <linearGradient id="l" x1="19.028%" x2="19.028%" y1="390.096%" y2="-274.83%">
            <stop offset="0%" stop-color="#08142E"/>
            <stop offset="81%" stop-color="#17326E"/>
            <stop offset="100%" stop-color="#0D69A9"/>
        </linearGradient>
        <linearGradient id="m" x1="41.37%" x2="41.37%" y1="156.112%" y2="-32.091%">
            <stop offset="0%" stop-color="#08142E"/>
            <stop offset="81%" stop-color="#17326E"/>
            <stop offset="100%" stop-color="#0D69A9"/>
        </linearGradient>
        <linearGradient id="n" x1="-7.939%" x2="-7.939%" y1="603.878%" y2="-375.098%">
            <stop offset="0%" stop-color="#08142E"/>
            <stop offset="81%" stop-color="#17326E"/>
            <stop offset="100%" stop-color="#0D69A9"/>
        </linearGradient>
        <linearGradient id="o" x1="45.897%" x2="45.897%" y1="140.128%" y2="-120.331%">
            <stop offset="0%" stop-color="#08142E"/>
            <stop offset="81%" stop-color="#17326E"/>
            <stop offset="100%" stop-color="#0D69A9"/>
        </linearGradient>
        <linearGradient id="p" x1="60.842%" x2="60.842%" y1="189.146%" y2="-259.762%">
            <stop offset="0%" stop-color="#08142E"/>
            <stop offset="81%" stop-color="#17326E"/>
            <stop offset="100%" stop-color="#0D69A9"/>
        </linearGradient>
        <linearGradient id="q" x1="54.546%" x2="54.546%" y1="343.328%" y2="-122.316%">
            <stop offset="0%" stop-color="#08142E"/>
            <stop offset="81%" stop-color="#17326E"/>
            <stop offset="100%" stop-color="#0D69A9"/>
        </linearGradient>
        <linearGradient id="r" x1="53.349%" x2="53.349%" y1="83.626%" y2="-110.173%">
            <stop offset="0%" stop-color="#08142E"/>
            <stop offset="81%" stop-color="#17326E"/>
            <stop offset="100%" stop-color="#0D69A9"/>
        </linearGradient>
        <linearGradient id="s" x1="76.973%" x2="76.973%" y1="500.45%" y2="-749.914%">
            <stop offset="0%" stop-color="#08142E"/>
            <stop offset="81%" stop-color="#17326E"/>
            <stop offset="100%" stop-color="#0D69A9"/>
        </linearGradient>
        <linearGradient id="t" x1="53.951%" x2="53.951%" y1="2788.24%" y2="-427.39%">
            <stop offset="0%" stop-color="#08142E"/>
            <stop offset="81%" stop-color="#17326E"/>
            <stop offset="100%" stop-color="#0D69A9"/>
        </linearGradient>
        <linearGradient id="u" x1="46.337%" x2="46.337%" y1="370.862%" y2="2.448%">
            <stop offset="0%" stop-color="#08142E"/>
            <stop offset="81%" stop-color="#17326E"/>
            <stop offset="100%" stop-color="#0D69A9"/>
        </linearGradient>
        <linearGradient id="v" x1="65.11%" x2="65.11%" y1="929.663%" y2="-462.298%">
            <stop offset="0%" stop-color="#08142E"/>
            <stop offset="81%" stop-color="#17326E"/>
            <stop offset="100%" stop-color="#0D69A9"/>
        </linearGradient>
        <linearGradient id="w" x1="80.453%" x2="80.453%" y1="403.971%" y2="-315.567%">
            <stop offset="0%" stop-color="#08142E"/>
            <stop offset="81%" stop-color="#17326E"/>
            <stop offset="100%" stop-color="#0D69A9"/>
        </linearGradient>
        <linearGradient id="x" x1="42.089%" x2="42.089%" y1="363.722%" y2="-67.95%">
            <stop offset="0%" stop-color="#08142E"/>
            <stop offset="81%" stop-color="#17326E"/>
            <stop offset="100%" stop-color="#0D69A9"/>
        </linearGradient>
        <linearGradient id="y" x1="65.955%" x2="46.139%" y1="71.869%" y2="47.447%">
            <stop offset="0%" stop-color="#B2B1B1"/>
            <stop offset="35%" stop-color="#DEDDDE"/>
            <stop offset="65%" stop-color="#DEDDDE"/>
            <stop offset="100%" stop-color="#B2B1B1"/>
        </linearGradient>
        <linearGradient id="z" x1="53.479%" x2="33.81%" y1="45.418%" y2="20.784%">
            <stop offset="0%" stop-color="#B2B1B1"/>
            <stop offset="35%" stop-color="#DEDDDE"/>
            <stop offset="65%" stop-color="#DEDDDE"/>
            <stop offset="100%" stop-color="#B2B1B1"/>
        </linearGradient>
        <linearGradient id="A" x1="50.449%" x2="50.449%" y1="-10.07%" y2="106.353%">
            <stop offset="0%" stop-color="#FFF"/>
            <stop offset="55%" stop-color="#FFF"/>
            <stop offset="69%" stop-color="#FAFAFA"/>
            <stop offset="80%" stop-color="#D3D2D2"/>
            <stop offset="100%" stop-color="#BDBCBC"/>
        </linearGradient>
        <linearGradient id="B" x1="50.626%" x2="50.626%" y1="-17.265%" y2="97.946%">
            <stop offset="0%" stop-color="#FFF"/>
            <stop offset="55%" stop-color="#FFF"/>
            <stop offset="69%" stop-color="#EFEEEE"/>
            <stop offset="80%" stop-color="#E9E9E9"/>
            <stop offset="100%" stop-color="#D3D2D2"/>
        </linearGradient>
        <linearGradient id="C" x1="49.244%" x2="49.244%" y1="3.562%" y2="119.556%">
            <stop offset="0%" stop-color="#FFF"/>
            <stop offset="55%" stop-color="#FFF"/>
            <stop offset="69%" stop-color="#EFEEEE"/>
            <stop offset="80%" stop-color="#E9E9E9"/>
            <stop offset="100%" stop-color="#D3D2D2"/>
        </linearGradient>
    </defs>
    <g fill="none" fill-rule="nonzero">
        <path fill="#D3D2D2" d="M147.557 25.4c.024.13.024.262 0 .391v-.39M74 0C32.903 0 0 12.206 0 27.5S33.222 55 74 55s74-12.328 74-27.5S114.778 0 74 0"/>
        <path fill="url(#a)" d="M1 27.5C1 42.188 33.672 54 74 54s73-11.824 73-26.5C147 12.812 114.328 1 74 1S1 12.873 1 27.5"/>
        <path fill="url(#b)" d="M7 27.048A7.97 7.97 0 0 0 7.588 30a8.703 8.703 0 0 1-.245-1.923c0-12.126 30.02-21.95 67.123-21.95 34.1 0 62.268 8.305 66.534 19.108C138.156 13.893 109.314 5 74.123 5 37.068 5 7 14.873 7 27.048"/>
        <path fill="url(#c)" d="M143.508 26.766c0 13.397-31.275 24.288-69.795 24.288-34.326 0-62.844-8.604-68.713-19.95C9.49 42.93 38.747 52 74.205 52 112.775 52 144 41.208 144 27.946a9.506 9.506 0 0 0-.935-3.946c.297.875.447 1.793.443 2.716"/>
        <path fill="url(#d)" d="M87.381 30c-1.65 1.565-1.754 3.53-.67 4.482.351.303.807.486 1.289.518-.87-1.06-.936-2.5-.168-3.624a2.008 2.008 0 0 1-.103-1.176c0-.094 0-.188-.155-.188h-.206"/>
        <path fill="url(#e)" d="M103.34 33.08c.026.282.066.562.12.84a3.72 3.72 0 0 0 .2-.4v-.16c-.12 0-.28-.16-.28-.24l-.04-.04z"/>
        <path fill="url(#f)" d="M105 28c.348.453.57 1.09.62 1.783 0 .262.173.315.277 0 .042-.08.076-.168.103-.262a.776.776 0 0 1-.103-.21c-.271-.462-.559-.9-.863-1.311H105z"/>
        <path fill="url(#g)" d="M83.06 27c.359.84.526 1.814.48 2.79 0 .28.16.28.24 0 0-.11.12-.223.16-.334A7.41 7.41 0 0 0 83.06 27z"/>
        <path fill="url(#h)" d="M98.218 31.835a8.568 8.568 0 0 0-2.212 5.316c-.052.65.24 1.28.77 1.654.168.086.345.151.528.195a3.863 3.863 0 0 1-.096-.681 8.331 8.331 0 0 1 1.984-5.414c1.73-2.14 3.606-3.211 4.808-2.627a1.313 1.313 0 0 0-.817-1.132c-.245-.1-.506-.15-.77-.146-1.202 0-2.789 1.083-4.195 2.835"/>
        <path fill="url(#i)" d="M68.243 28.504c-2.21.708-4.166 1.987-5.645 3.692-1.668 2.067-2.085 4.59-.99 6.066.234.324.559.58.938.738-.538-2.026-.057-4.173 1.304-5.82a11.31 11.31 0 0 1 4.914-3.31c.26-.098.26-.246.209-.443-.105-.344-.313-1.23-.417-1.427 0 .246 0 .394-.261.443"/>
        <path fill="url(#j)" d="M83.814 34.096a874.351 874.351 0 0 0-5.513 8.217.58.58 0 0 1-.353.241h-3.696A.228.228 0 0 1 74 42.41c.1.433.252 1.204.303 1.397a.25.25 0 0 0 .252.193h4.2a.378.378 0 0 0 .354-.241l5.26-7.867a4.309 4.309 0 0 0 1.261 2.506 3.13 3.13 0 0 0 2.371.77 7.578 7.578 0 0 0 2.839-.77 4.84 4.84 0 0 0 1.009-.53A6.26 6.26 0 0 1 92 36.47s0-.337-.303-.193a8.544 8.544 0 0 1-1.917.964 5.916 5.916 0 0 1-2.334.482c-1.163.007-2.241-.581-2.825-1.542a4.516 4.516 0 0 1-.606-2.085.111.111 0 0 0-.1-.096s-.101 0-.152.096"/>
        <path fill="url(#k)" d="M114.586 35.06a35.757 35.757 0 0 1-5.542 5.406c-2.9 2.177-5.75 2.698-7.169 1.325a2.701 2.701 0 0 1-.832-1.905c0-.33-.195-.33-.342-.189-1.713 1.621-4.66 3.42-7.34 2.142-1.251-.654-2.122-1.828-2.361-3.183a11.77 11.77 0 0 0 .832 3.183 3.692 3.692 0 0 0 1.431 1.42c2.447 1.182 5.786-.143 7.988-2.178.098.379.245.805.245.852.12.426.318.827.587 1.183 1.53 1.657 4.661.9 8-1.561a30.803 30.803 0 0 0 4.894-4.65.79.79 0 0 0 0-.379c-.098-.426-.245-1.183-.343-1.526-.097 0-.097.106-.146.154l.098-.095z"/>
        <path fill="url(#l)" d="M92.548 29.74c-.109 1.09-.737 2.048-1.671 2.55-.781.41-1.722.293-2.388-.298a4.174 4.174 0 0 1-.489-.697c.12.599.3 1.182.537 1.741.305.49.791.827 1.343.93a1.967 1.967 0 0 0 1.57-.383c1.075-.647 1.676-1.9 1.528-3.183a5.732 5.732 0 0 0-.669-2.4 2.77 2.77 0 0 1 .287 1.74"/>
        <path fill="url(#m)" d="M117.51 19.148c-.553.986-11.636 17.495-12.34 19.221-.2.543-.251.937 0 1.233.235.275.59.422.955.395.05-.235.118-.466.201-.69.704-1.727 11.083-17.15 11.636-18.137a.218.218 0 0 0 0-.247c0-.148-.402-1.775-.402-1.923.02.047.02.1 0 .148"/>
        <path fill="url(#n)" d="M72 27l.108.098a6.794 6.794 0 0 1 1.135 3.66c0 .292.162.292.325.146.13-.142.275-.273.432-.39-.22-.71-.51-1.4-.865-2.062A4.916 4.916 0 0 0 72 27z"/>
        <path fill="url(#o)" d="M78.259 29.982a31.786 31.786 0 0 0-5.272 5.754 34.07 34.07 0 0 1-2.667 3.436c-2.458 2.614-5.616 4.135-8.664 3.055a5.12 5.12 0 0 1-3.367-3.595c-.098-.343-.295-.392-.443-.196-.697.8-1.489 1.514-2.359 2.123-.098 0-.356.196-.553.098A6.296 6.296 0 0 1 54 39.43v-.098c.043.61.228 1.203.54 1.73.22.347.466.675.738.981a.566.566 0 0 0 .504 0 11.29 11.29 0 0 0 2.458-2.024.234.234 0 0 1 .393.098c.25.67.562 1.315.934 1.926a3.895 3.895 0 0 0 2.323 1.67 7.384 7.384 0 0 0 4.915-.295 12.178 12.178 0 0 0 4.523-3.252 34.07 34.07 0 0 0 2.666-3.436 35.725 35.725 0 0 1 4.732-5.264c.737-.638 1.573-1.08 2.113-.883.295-.785.148-1.227-.147-1.485a.923.923 0 0 0-.393-.098 5.472 5.472 0 0 0-2.016 1.043"/>
        <path fill="url(#p)" d="M39.245 27.756a8.495 8.495 0 0 0-3.744 3.492 4.36 4.36 0 0 0 .2 4.4c.1.1.15.251.249.352a5.774 5.774 0 0 1 .5-3.592 7.427 7.427 0 0 1 3.007-3.089.954.954 0 0 0 .4-1.361 3.98 3.98 0 0 1-.2-.958.707.707 0 0 1-.4.756"/>
        <path fill="url(#q)" d="M48.905 13.048c-3.817 1.36-5.514 4.197-4.709 6.103.129.36.393.661.743.849-.247-1.779 1.14-4.65 4.82-5.813 4.808-1.488 10.174-.558 14.498.338.595-.384 1.14-.617 1.648-.896.248-.14-.062-.279-.111-.279a61.432 61.432 0 0 0-10.47-1.348 18.905 18.905 0 0 0-6.42 1.023"/>
        <path fill="url(#r)" d="M64.862 24.067a91.305 91.305 0 0 0-6.16.58c-.444 0-.494.146-.592.291-2.908 4.704-5.977 9.747-9.39 13.145-3.697 3.628-6.667 4.607-9.858 4.607-3.673.222-6.982-2.165-7.862-5.671a9.88 9.88 0 0 0 3.315 5.526 8.243 8.243 0 0 0 4.929 1.451c3.697 0 7.011-1.402 10.573-4.946 3.4-3.386 6.37-8.138 9.23-12.842.098-.145.196-.242.69-.29 1.835-.242 3.462-.339 5.088-.484.493 0 .838-.097 1.036.097a8.085 8.085 0 0 0 1.737 1.354.985.985 0 0 1 .74.242c.177-.051.344-.133.492-.242a.798.798 0 0 0 .148-.677 7.484 7.484 0 0 0-.296-1.367.49.49 0 0 1-.147.593.868.868 0 0 1-.592.29 1.685 1.685 0 0 1-.591-.193 6.316 6.316 0 0 1-1.689-1.318.397.397 0 0 0-.394-.194.79.79 0 0 0-.345 0"/>
        <path fill="url(#s)" d="M49.411 26.45a.927.927 0 0 1-1.257-.14.718.718 0 0 1-.15-.374c-.028.6.11 1.195.402 1.731.341.382.947.444 1.37.14a8.382 8.382 0 0 1 3.269-1.45c.301-.374.603-.796.955-1.263V25h-.15a8.015 8.015 0 0 0-4.439 1.497"/>
        <path fill="url(#t)" d="M95.491 11.46v.08s.04-.08 0-.08z"/>
        <path fill="url(#u)" d="M95.755 12.354c0 1.062-.88 2.137-2.899 3.25a14.361 14.361 0 0 1-7.156 1.719c-6.03 0-11.67-2.377-17.455-3.705 0 .253 0 .57-.147.772-3.242 2.528-6.116 4.956-8.098 8.458 0 .101 0 .152.098.152.538 0 1.04 0 1.529-.101a23.403 23.403 0 0 1 6.569-6.74.77.77 0 0 0 .342-.91c5.835 1.265 10.251 3.54 17.798 3.591a15.69 15.69 0 0 0 7.12-1.82c1.957-1.265 2.446-2.125 2.544-3.048a5.221 5.221 0 0 0-.098-.96A7.37 7.37 0 0 0 95.706 12v.354"/>
        <path fill="url(#v)" d="M66.91 19.264a.864.864 0 0 1-.236.234c-.49.585-.733 1.393-.662 2.207 0 .276.142.33.236.276a.782.782 0 0 0 .331-.11 1.89 1.89 0 0 1 .473-1.049.88.88 0 0 1 .756-.275 1.333 1.333 0 0 0 0-1.38.528.528 0 0 0-.425-.165 2.036 2.036 0 0 0-.473.276"/>
        <path fill="url(#w)" d="M69.374 21.301a3.632 3.632 0 0 1-2.227 1.751s-.186 0-.14.18c0 .18.604.538.975.763a.48.48 0 0 0 .14 0 3.008 3.008 0 0 0 1.53-1.437c.331-.606.43-1.306.28-1.975A4.537 4.537 0 0 0 69.512 19c.373.753.32 1.639-.139 2.346"/>
        <path fill="url(#x)" d="M53.514 16.048c.124.402.088.835-.1 1.212-1.655 3.745-4.777 6.654-8.588 6.8-2.029.124-3.935-.948-4.826-2.715a7.8 7.8 0 0 0 2.858 2.92 5.46 5.46 0 0 0 3.021.728c3.63-.338 6.737-2.663 7.986-5.975.18-.655.18-1.345 0-2-.1-.242-.15-.679-.301-1.018l-.05.048z"/>
        <path fill="#4F4C4D" d="M147.557 25.4c.024.13.024.262 0 .391v-.39M.492 27.84c0-3.234 1.44-6.407 4.442-9.447C15.541 7.775 43.264.634 73.84.488c40.605-.146 73.557 11.84 73.656 26.72 0 3.234-1.49 6.358-4.492 9.398-10.606 10.619-38.28 17.808-68.906 17.906C33.555 54.707.541 42.72.443 27.842M74 0C32.903 0 0 12.206 0 27.5S33.222 55 74 55s74-12.328 74-27.5S114.778 0 74 0"/>
        <path fill="url(#y)" d="M0 26.881c.009.713.091 1.423.246 2.119a10.973 10.973 0 0 1-.197-1.782c.148-3.613 1.763-7.02 4.487-9.462C15.182 7.235 42.926.144 73.536.048c4.24 0 8.432.096 12.464.337C82.017.145 77.874 0 73.707 0 32.847 0 .025 11.966.025 26.881"/>
        <path fill="url(#z)" d="M147.995 27.415c0 3.282-1.532 6.503-4.571 9.54-10.566 10.615-38.23 17.85-68.75 17.996-4.327 0-8.58-.097-12.674-.341 4.07.244 8.249.39 12.527.39 40.534 0 73.468-12.322 73.468-27.292 0-.572-.049-1.144-.147-1.708.119.462.168.939.147 1.415"/>
        <path fill="url(#A)" d="M4 26.927C4 40.18 35.355 51 74.025 51S144 40.228 144 26.976C144 13.723 112.744 3 74.074 3S4.049 13.723 4.049 26.976m2.467 0c0-12.158 30.208-21.885 67.546-21.885 37.288 0 67.545 9.8 67.545 21.885 0 12.158-30.208 21.884-67.545 21.884-37.288 0-67.546-9.8-67.546-21.884"/>
        <path fill="url(#B)" d="M113.972 19.007a.495.495 0 0 0-.543.303c-.445.825-5.693 8.49-6.632 10.007-.148.243-.346.194-.395 0a3.244 3.244 0 0 0-2.124-2.426 5.714 5.714 0 0 0-2.829-.34 10.033 10.033 0 0 0-4.606 2.135c-2.025 1.517-3.816 3.506-6.04 4.961-1.234.777-2.926 1.517-4.062.437-1.038-.922-.89-3.008.642-4.621a.2.2 0 0 1 .227-.051.194.194 0 0 1 .119.196c-.172.71.06 1.457.605 1.953a2.368 2.368 0 0 0 2.47.291 3.168 3.168 0 0 0 1.729-2.426 2.802 2.802 0 0 0-.611-2.151 2.905 2.905 0 0 0-2.007-1.051 5.116 5.116 0 0 0-3.705 1.359 7.913 7.913 0 0 0-1.482 1.6c-.148.195-.346.195-.297 0 0-2.086-.84-3.25-2.58-3.299a6.234 6.234 0 0 0-3.953 1.601 36.713 36.713 0 0 0-3.52 3.506c-.148.145-.296.145-.296-.146a7.18 7.18 0 0 0-1.037-3.638.937.937 0 0 0-1.136-.292 7.442 7.442 0 0 0-1.346.777.732.732 0 0 0-.247.824 9.542 9.542 0 0 1-.346 6.417 7.174 7.174 0 0 1-4.113 4.04 2.685 2.685 0 0 1-3.161-.826c-1.038-1.407-.643-3.893.938-5.98a11.82 11.82 0 0 1 5.348-3.699c.247-.097.296-.243.197-.437-.098-.34-.296-.776-.345-.97-.198-.485-.692-.534-1.334-.485-1.428.174-2.808.619-4.063 1.31a13.393 13.393 0 0 0-5.792 7.047 6.633 6.633 0 0 1-1.038 1.904 15.475 15.475 0 0 1-2.47 2.28.42.42 0 0 0-.099.486c.262.44.577.848.939 1.213.198.097.457 0 .556-.097a13.037 13.037 0 0 0 2.37-2.099c.15-.194.347-.097.446.195a5.181 5.181 0 0 0 3.371 3.554c3.063 1.018 6.286-.437 8.707-3.02a33.756 33.756 0 0 0 2.68-3.397 31.62 31.62 0 0 1 5.298-5.689c.84-.643 1.877-1.128 2.37-.837.396.243.544.886-.098 2.05-2.371 4.282-5.89 9.34-6.533 10.553-.099.194 0 .388.198.388h3.68c.16.011.305-.09.346-.243a882.4 882.4 0 0 1 5.397-8.272c.098-.146.197 0 .197 0 .028.735.231 1.454.593 2.098a3.297 3.297 0 0 0 2.766 1.553c.79.02 1.574-.146 2.285-.485a8.277 8.277 0 0 0 1.877-.97c.297-.195.346.145.297.194-.445 2.231.098 4.912 2.383 5.98 2.717 1.31 5.693-.534 7.41-2.196.148-.146.346-.146.346.194.064.722.358 1.405.84 1.953 1.432 1.407 4.36.873 7.237-1.359a36.363 36.363 0 0 0 5.594-5.543.299.299 0 0 0 0-.352 7.665 7.665 0 0 0-.95-.824c-.1-.097-.297 0-.396 0a44.693 44.693 0 0 1-5.792 5.203c-.79.534-2.075.97-2.618.243a1.29 1.29 0 0 1 0-1.213c.691-1.698 11.584-17.94 12.127-18.91.099-.146 0-.303-.197-.303h-3.705m-17.29 19.99a1.928 1.928 0 0 1-.79-1.65 8.919 8.919 0 0 1 2.272-5.301c1.79-2.135 3.705-3.263 5.051-2.68 1.346.642.89 2.146.296 3.36a.215.215 0 0 0 0 .242c0 .145.198.242.346.29 0 0 .099 0 0 .195-.406.857-.903 1.67-1.482 2.426a9.053 9.053 0 0 1-1.877 1.99 5.3 5.3 0 0 1-2.976 1.406 1.878 1.878 0 0 1-.89-.242"/>
        <path fill="url(#C)" d="M56.086 9c-1.05 0-2.087 0-3.125.145-6.682.533-13.018 4.213-13.067 9.854a4.792 4.792 0 0 0 1.48 3.664 4.998 4.998 0 0 0 3.77 1.372c3.704-.145 6.83-3.05 8.46-6.791.592-1.404-.544-1.985-1.038-1.21a9.812 9.812 0 0 1-3.705 3.304c-1.779.823-3.705.63-4.2-.787-.802-1.985.89-4.939 4.694-6.355 5.496-1.985 11.289-.678 16.847.339.099 0 .395.145.099.29a17.333 17.333 0 0 0-3.52 2.24 29.579 29.579 0 0 0-3.62 3.438c-1.086 1.32-1.877 2.421-2.914 3.789a.42.42 0 0 1-.297.194c-2.47.435-4.94.678-7.237 2.24-.45.275-.62.836-.396 1.307a.877.877 0 0 0 1.235.145 7.706 7.706 0 0 1 4.509-1.55.189.189 0 0 1 .148 0v.097a64.012 64.012 0 0 1-4.94 6.21 32.74 32.74 0 0 1-2.915 2.906c-4.212 3.837-8.77 3.789-10.4 1.368a3.975 3.975 0 0 1-.198-4.225 8.312 8.312 0 0 1 3.706-3.353.84.84 0 0 0 .148-1.404 1.882 1.882 0 0 0-1.643-.34 9.034 9.034 0 0 0-4.94 3.148 8.767 8.767 0 0 0-2.001 6.27C31.42 39.568 34.99 42 39.054 42c3.211 0 6.287-.968 9.88-4.612 3.422-3.402 6.547-8.474 9.412-13.16.1-.144.149-.241.593-.29a99.833 99.833 0 0 1 6.176-.58c.395 0 .444 0 .593.193a6.33 6.33 0 0 0 1.692 1.32c.173.122.38.19.593.193a.87.87 0 0 0 .592-.29.55.55 0 0 0 .149-.642c-.1-.194-1.235-.823-1.334-1.065 0-.146.148-.194.148-.194a4.01 4.01 0 0 0 2.371-1.888 2.457 2.457 0 0 0-.345-3.16 2.506 2.506 0 0 0-3.261.387 3.854 3.854 0 0 0-1.235 3.402c0 .194 0 .29-.247.29-1.581.146-3.113.146-4.854.243-.099 0-.148 0-.099-.146 1.988-3.353 4.94-5.726 8.176-8.098.198-.145.149-.448.149-.739 5.891 1.21 11.535 3.632 17.625 3.547a14.49 14.49 0 0 0 7.225-1.646C95.09 14 95.93 12.97 95.98 11.954a.886.886 0 0 0-.306-.872.929.929 0 0 0-.929-.145 52.2 52.2 0 0 1-18.18.63C69.536 10.694 62.854 9 55.924 9m10.598 12.106a2.242 2.242 0 0 1 .84-2.083c.346-.302.84-.399 1.087-.157.345.303.148.98-.149 1.416a2.556 2.556 0 0 1-1.531 1.066s-.148 0-.198-.242"/>
    </g>
</svg>
