<svg xmlns="http://www.w3.org/2000/svg" width="147" height="17" viewBox="0 0 147 17">
    <g fill="#1D1D1B" fill-rule="nonzero">
        <path d="M14 1c-.073.815-.293 1.63-.586 2.444L8.796 16.926 5.13 17 .66 3.444C.293 2.63.147 1.814 0 1h3.225L6.01 9.889l.953 3.555h.147L10.848 1H14zM28 1l-.134 2.605H21.82v4.018h4.769v2.53h-4.77v4.242h6.046L28 17h-9V1zM45 1v16h-3.269v-6.847h-6.462V17H32V1h3.269v6.549h6.462V1zM54 1v16h-3V1zM64.926 0C66.352 0 67.778.381 69 1.219l-1.018 2.438c-.883-.533-1.901-.838-2.92-.838-.95-.076-1.969.381-2.648 1.143-.95 1.295-1.425 2.971-1.357 4.648 0 2.819 1.018 5.561 4.141 5.561a7.477 7.477 0 0 0 3.123-.685L69 15.924c-1.358.762-2.851 1.143-4.345 1.066-4.277 0-6.654-3.428-6.654-8.152C57.934 4.343 60.174 0 64.926 0zM86 1v9.279C86 14.297 84.323 17 80.299 17 76.878 17 75 14.808 75 10.79V1h2.884v9.498c0 2.63.67 3.945 2.683 3.945.67 0 1.274-.292 1.744-.73.67-.804.939-1.827.872-2.85V1H86zM95.071 1v13.395h5.786L101 17h-9V1zM115 1v9.279c0 4.018-1.677 6.721-5.701 6.721-3.421 0-5.299-2.192-5.299-6.21V1h2.884v9.498c0 2.63.67 3.945 2.683 3.945.67 0 1.274-.292 1.744-.73.604-.804.939-1.827.872-2.85V1H115zM137.098 1l1.682 14.065c.074.67.147 1.265.22 1.935h-2.927l-1.024-9.153-.293-3.2h-.073L131.756 17h-3.732l-2.268-9.153-.658-3.2h-.074L123.78 17H121c.073-.744.146-1.488.22-2.158L122.83 1h4.316l2.342 9.302.585 2.977h.147L133 1h4.098zM145.528 14.005c.734-.061 1.407.489 1.468 1.222v.184c.06.794-.55 1.528-1.345 1.589h-.184c-.794 0-1.467-.672-1.467-1.528.061-.795.734-1.467 1.528-1.467z"/>
    </g>
</svg>
