<svg xmlns="http://www.w3.org/2000/svg" width="122" height="93" viewBox="0 0 122 93">
    <defs>
        <linearGradient id="a" x1="50%" x2="50%" y1="100%" y2=".015%">
            <stop offset="0%" stop-color="#E5E5E5"/>
            <stop offset="69%" stop-color="#FFF"/>
            <stop offset="100%" stop-color="#919191"/>
        </linearGradient>
        <radialGradient id="b" cx="44.384%" cy="25.808%" r="63.175%" fx="44.384%" fy="25.808%" gradientTransform="matrix(1 0 0 .79194 0 .054)">
            <stop offset="40%" stop-color="#FFF"/>
            <stop offset="100%" stop-color="#919191"/>
        </radialGradient>
        <linearGradient id="c" x1="49.958%" x2="49.958%" y1="99.961%" y2=".95%">
            <stop offset="1%" stop-color="#E5E5E5"/>
            <stop offset="34%" stop-color="#A6A6A6"/>
            <stop offset="69%" stop-color="#333"/>
            <stop offset="85%" stop-color="#1A1A1A"/>
            <stop offset="95%" stop-color="#111"/>
            <stop offset="96%" stop-color="#141414"/>
            <stop offset="97%" stop-color="#1D1D1D"/>
            <stop offset="98%" stop-color="#2D2D2D"/>
            <stop offset="99%" stop-color="#444"/>
            <stop offset="100%" stop-color="#616161"/>
            <stop offset="100%" stop-color="#666"/>
        </linearGradient>
        <linearGradient id="d" x1="50.026%" x2="50.026%" y1="99.015%" y2=".382%">
            <stop offset="1%" stop-color="#E5E5E5"/>
            <stop offset="34%" stop-color="#A6A6A6"/>
            <stop offset="69%" stop-color="#333"/>
            <stop offset="85%" stop-color="#1A1A1A"/>
            <stop offset="95%" stop-color="#111"/>
            <stop offset="97%" stop-color="#141414"/>
            <stop offset="98%" stop-color="#1D1D1D"/>
            <stop offset="98%" stop-color="#2D2D2D"/>
            <stop offset="99%" stop-color="#444"/>
            <stop offset="100%" stop-color="#616161"/>
            <stop offset="100%" stop-color="#666"/>
        </linearGradient>
        <linearGradient id="e" x1="50.029%" x2="50.029%" y1="99.257%" y2="-.62%">
            <stop offset="0%" stop-color="#333"/>
            <stop offset="1%" stop-color="#292929"/>
            <stop offset="2%" stop-color="#1E1E1E"/>
            <stop offset="4%" stop-color="#1A1A1A"/>
            <stop offset="12%" stop-color="#151515"/>
            <stop offset="23%" stop-color="#050505"/>
            <stop offset="25%"/>
        </linearGradient>
        <linearGradient id="f" x1="50%" x2="50%" y1="100%" y2="0%">
            <stop offset="0%" stop-color="#737373"/>
            <stop offset="15%" stop-color="#6E6E6E"/>
            <stop offset="33%" stop-color="#5E5E5E"/>
            <stop offset="53%" stop-color="#454545"/>
            <stop offset="75%" stop-color="#222"/>
            <stop offset="80%" stop-color="#1A1A1A"/>
            <stop offset="92%"/>
        </linearGradient>
        <linearGradient id="g" x1="50.15%" x2="50.15%" y1="100%" y2=".16%">
            <stop offset="36%" stop-color="#BFBFBF"/>
            <stop offset="47%" stop-color="#BABABA"/>
            <stop offset="61%" stop-color="#ACACAC"/>
            <stop offset="75%" stop-color="#959595"/>
            <stop offset="90%" stop-color="#757575"/>
            <stop offset="96%" stop-color="#666"/>
            <stop offset="100%" stop-color="#333"/>
        </linearGradient>
        <linearGradient id="h" x1="70.919%" x2="22.559%" y1="66.168%" y2="25.174%">
            <stop offset="1%" stop-color="#F2F2F2" stop-opacity=".8"/>
            <stop offset="11%" stop-color="#EDEDED" stop-opacity="0"/>
        </linearGradient>
        <linearGradient id="i" x1="50.029%" x2="50.029%" y1="99.41%" y2="-.621%">
            <stop offset="0%" stop-color="#FFF"/>
            <stop offset="22%" stop-color="#F9F9F9"/>
            <stop offset="51%" stop-color="#E7E7E7"/>
            <stop offset="85%" stop-color="#CBCBCB"/>
            <stop offset="97%" stop-color="#BFBFBF"/>
            <stop offset="99%" stop-color="#737373"/>
        </linearGradient>
        <linearGradient id="j" x1="50%" x2="50%" y1="99.91%" y2="0%">
            <stop offset="0%" stop-color="#666"/>
            <stop offset="19%" stop-color="#5E5E5E"/>
            <stop offset="58%" stop-color="#515151"/>
            <stop offset="97%" stop-color="#4D4D4D"/>
            <stop offset="99%" stop-color="#757575"/>
            <stop offset="100%" stop-color="#8C8C8C"/>
        </linearGradient>
        <linearGradient id="k" x1="12.723%" x2="89.001%" y1="47.86%" y2="52.234%">
            <stop offset="2%" stop-color="#666"/>
            <stop offset="4%" stop-color="#4A4A4A"/>
            <stop offset="6%" stop-color="#363636"/>
            <stop offset="8%" stop-color="#292929"/>
            <stop offset="10%" stop-color="#252525"/>
        </linearGradient>
        <linearGradient id="l" x1="25.851%" x2="74.577%" y1="27.474%" y2="74.021%">
            <stop offset="0%" stop-color="#595959"/>
            <stop offset="100%" stop-color="#737373"/>
        </linearGradient>
        <linearGradient id="m" x1="95.324%" x2="2.938%" y1="51.229%" y2="48.814%">
            <stop offset="1%" stop-color="#595959"/>
            <stop offset="3%" stop-color="#757575"/>
            <stop offset="4%" stop-color="#909090"/>
            <stop offset="6%" stop-color="#A0A0A0"/>
            <stop offset="7%" stop-color="#A6A6A6"/>
            <stop offset="50%" stop-color="#BEBEBE"/>
            <stop offset="100%" stop-color="#BFBFBF"/>
        </linearGradient>
        <linearGradient id="n" x1="26.155%" x2="73.296%" y1="66.397%" y2="34.829%">
            <stop offset="0%" stop-color="#8C8C8C"/>
            <stop offset="99%" stop-color="#737373"/>
            <stop offset="100%" stop-color="#BFBFBF"/>
        </linearGradient>
        <linearGradient id="o" x1="49.87%" x2="49.87%" y1="100%" y2=".089%">
            <stop offset="2%" stop-color="#252525"/>
            <stop offset="22%" stop-color="#2E2E2E"/>
            <stop offset="60%" stop-color="#3B3B3B"/>
            <stop offset="97%" stop-color="#3F3F3F"/>
            <stop offset="99%" stop-color="#5C5C5C"/>
            <stop offset="100%" stop-color="#737373"/>
        </linearGradient>
        <radialGradient id="p" fx="50%" fy="50%">
            <stop offset="0%" stop-color="#FFF"/>
            <stop offset="59%" stop-color="#FFF" stop-opacity="0"/>
        </radialGradient>
    </defs>
    <g fill="none" fill-rule="nonzero">
        <g fill="#000">
            <path d="M121.59 76.82v2.77h-5.77v12.18h-3.89V79.59h-5.77v-2.77zM107.82 89v2.77H95.46v-15h3.89V89zM33 89v2.77H20v-15h12.71v2.77h-8.85v3.28H32v2.68h-8.14V89zM13 86.22a5.22 5.22 0 0 0 2.7-4.55 4.42 4.42 0 0 0-1.41-3.56c-1.1-.91-2.62-1.29-5.18-1.29H.2l-.16.9.34.59c.195.273.284.607.25.94v12.52h3.89V87h4.84L12 91.77h4.28L13 86.22zm-2-2.43a1.6 1.6 0 0 1-1.21.43H4.52v-4.55h4.2a3.69 3.69 0 0 1 2.36.5 2 2 0 0 1 .65 1.68 2.6 2.6 0 0 1-.73 1.94zM49.24 76.82v9.91c-.91-1.14-1.86-2.24-3.47-4-1.31-1.44-4-4.39-5.44-5.9h-3.76l-.15.9.34.59c.15.212.24.461.26.72v12.74h3.5v-9.91c.7.93 1.94 2.36 2.77 3.26 1.64 1.78 4.14 4.57 6.08 6.66h3.35v-15l-3.48.03zM87.32 76.82V86a2.6 2.6 0 0 1-.7 2.09 4.57 4.57 0 0 1-3.18.87 4.62 4.62 0 0 1-3.21-.87 2.57 2.57 0 0 1-.7-2.09v-9.14H75.2l-.16.9.34.59c.147.206.236.448.26.7v7.09c0 3.91 2.65 5.9 7.75 5.9h.11c5.11 0 7.62-1.93 7.62-5.9v-9.28l-3.8-.04zM67 76.82h-4.86c-1.47 3-4 8.66-6.44 15h3.91c.31-.85.64-1.72 1-2.59h8c.34.87.67 1.74 1 2.59h3.9c-2.51-6.34-5.06-11.96-6.51-15zm-5.3 9.54c1-2.54 2-5 2.87-6.82.83 1.87 1.86 4.28 2.88 6.82H61.7z"/>
        </g>
        <g transform="translate(34)">
            <path fill="url(#a)" d="M53.31 32.5c-1.15-2.44-3.85-7.71-6.58-12.68-3.86-7-9.89-17-10.51-17.84a2.12 2.12 0 0 0-.44-.48.68.68 0 0 0-.24-.12 2.67 2.67 0 0 0-.75 0 2.06 2.06 0 0 1-.43 0c-1.29 0-3.88-.11-6.43-.11-3.13 0-6.91.1-7.4.15a.93.93 0 0 0-.44.12 1.11 1.11 0 0 0-.46.43c-.58.88-6.64 10.84-10.5 17.84-2.73 5-5.43 10.24-6.58 12.68a2.46 2.46 0 0 0 0 2.53c1.15 2.44 3.85 7.7 6.58 12.67 3.86 7 9.89 17 10.51 17.84.084.115.174.225.27.33a.91.91 0 0 0 .41.28c.235.04.475.04.71 0h.44c1.55.05 3.94.11 6.46.11 3.13 0 6.79-.09 7.35-.15h.08a.94.94 0 0 0 .39-.09c.13-.05.24-.15.5-.51.62-.85 6.62-10.78 10.48-17.79 2.73-5 5.43-10.23 6.58-12.67a3.21 3.21 0 0 0 .35-1.35 2.79 2.79 0 0 0-.35-1.19zm-17.79 2.58c-2.58 5.78-4.41 9.39-7.13 14.61-.16.3-.28.5-.46.5s-.31-.2-.46-.5c-2.72-5.22-4.55-8.83-7.13-14.61a2.47 2.47 0 0 1 0-2.63c2.58-5.79 4.41-9.39 7.13-14.62.16-.3.28-.49.46-.5.18 0 .31.2.47.5 2.71 5.23 4.55 8.83 7.13 14.62.22.407.346.858.37 1.32a3 3 0 0 1-.38 1.31z"/>
            <path fill="url(#b)" d="M53.31 32.5c-1.15-2.44-3.85-7.71-6.58-12.68-3.86-7-9.89-17-10.51-17.84a2.12 2.12 0 0 0-.44-.48.68.68 0 0 0-.24-.12 2.67 2.67 0 0 0-.75 0 2.06 2.06 0 0 1-.43 0c-1.29 0-3.88-.11-6.43-.11-3.13 0-6.91.1-7.4.15a.93.93 0 0 0-.44.12 1.11 1.11 0 0 0-.46.43c-.58.88-6.64 10.84-10.5 17.84-2.73 5-5.43 10.24-6.58 12.68a2.46 2.46 0 0 0 0 2.53c1.15 2.44 3.85 7.7 6.58 12.67 3.86 7 9.89 17 10.51 17.84.084.115.174.225.27.33a.91.91 0 0 0 .41.28c.235.04.475.04.71 0h.44c1.55.05 3.94.11 6.46.11 3.13 0 6.79-.09 7.35-.15h.08a.94.94 0 0 0 .39-.09c.13-.05.24-.15.5-.51.62-.85 6.62-10.78 10.48-17.79 2.73-5 5.43-10.23 6.58-12.67a3.21 3.21 0 0 0 .35-1.35 2.79 2.79 0 0 0-.35-1.19zm-17.79 2.58c-2.58 5.78-4.41 9.39-7.13 14.61-.16.3-.28.5-.46.5s-.31-.2-.46-.5c-2.72-5.22-4.55-8.83-7.13-14.61a2.47 2.47 0 0 1 0-2.63c2.58-5.79 4.41-9.39 7.13-14.62.16-.3.28-.49.46-.5.18 0 .31.2.47.5 2.71 5.23 4.55 8.83 7.13 14.62.22.407.346.858.37 1.32a3 3 0 0 1-.38 1.31z"/>
            <path fill="url(#c)" d="M15.37 2.87a8.17 8.17 0 0 1-.79-2 1 1 0 0 1 0-.17c0-.14 0-.09-.17 0a2.16 2.16 0 0 1-1.56.41H1.38c-.51 0-1.18 0-1.18.76a9.59 9.59 0 0 0 1.24 3c4.55 8.9 9.6 17.79 15 26.48 0 0 .83 1.33.91 1.44a.46.46 0 0 0 .39.15A143 143 0 0 0 24 19.86c-3.11-5.7-6-11.33-8.63-16.99z" transform="translate(3 33)"/>
            <path fill="url(#d)" d="M53 33.84a1.77 1.77 0 0 1-1.25.32H42.3c-4.33 0-3.89-.12-5 2.17-.5 1-1 2.22-1.54 3.21-3.78 7.91-13 23.83-14.26 25.81-.47.74-.54.78-.2.78 0 0 3.14.12 6.62.12 5.45 0 7.39-.16 7.39-.16C38.47 61.18 46 48.72 51.38 37.93c1.24-2.49 1.86-3.57 1.79-4.1 0-.1-.09-.04-.17.01z"/>
            <path fill="url(#e)" d="M35.07 1.51c-.23 0-.4.17-.72.67-2.67 4.13-11.89 21.51-15.66 29.61a5.21 5.21 0 0 0-.69 2h2a3.19 3.19 0 0 1 .38-1.3c2.58-5.79 4.41-9.39 7.13-14.61.16-.31.28-.5.46-.51l.76-2.22c2.62-6.67 6.34-13.64 6.34-13.64z"/>
            <path fill="url(#f)" d="M37.85 33.77a5 5 0 0 0-.68-1.93c-2.6-5.53-5.33-10.92-8.48-16.73l-.76 2.22c.18 0 .31.2.47.5 2.71 5.23 4.55 8.83 7.13 14.62.22.407.346.858.37 1.32h1.95z"/>
            <path fill="url(#g)" d="M27.93 50.19c-.18 0-.31-.2-.46-.5-2.72-5.22-4.55-8.83-7.13-14.61a3.17 3.17 0 0 1-.38-1.33h-2a5.14 5.14 0 0 0 .68 2c2.61 5.53 5.32 10.9 8.47 16.71l.82-2.27z"/>
            <path fill="url(#h)" d="M27.93 50.19c-.18 0-.31-.2-.46-.5-2.72-5.22-4.55-8.83-7.13-14.61a3.17 3.17 0 0 1-.38-1.33h-2a5.14 5.14 0 0 0 .68 2c2.61 5.53 5.32 10.9 8.47 16.71l.82-2.27z"/>
            <path fill="url(#i)" d="M20.76 66c.22 0 .48-.26.78-.71.07-.13.18-.3.31-.52 2-3.43 11.72-21.33 15.3-29a5.31 5.31 0 0 0 .7-2H35.9a3 3 0 0 1-.38 1.31c-2.58 5.78-4.41 9.39-7.13 14.61-.15.3-.28.5-.46.5l-.78 2.23A141.92 141.92 0 0 1 20.76 66z"/>
            <path fill="url(#j)" d="M19.91 65.87a3.72 3.72 0 0 1-.27-.33c-.62-.85-6.65-10.83-10.5-17.84-2.74-5-5.44-10.24-6.59-12.67a3.13 3.13 0 0 1-.35-1.27H.93a4.45 4.45 0 0 0 .47 1.82c.9 1.94 3.41 6.89 6.62 12.74 3.51 6.38 9.89 17 10.6 18a3 3 0 0 0 .78.8l.51-1.25z"/>
            <path fill="url(#k)" d="M19.4 67.09c.307.17.65.266 1 .28 1 .08 5.1.15 7.49.15 2.39 0 6.87-.1 7.49-.15a2.75 2.75 0 0 0 .84-.18l-.5-1.18a1.4 1.4 0 0 1-.39.08h-.09c-.55.07-4.21.15-7.35.15-2.52 0-4.91-.06-6.46-.11a2.17 2.17 0 0 0-.44 0 2.39 2.39 0 0 1-.71 0 .91.91 0 0 1-.41-.28l-.47 1.24z"/>
            <path fill="url(#l)" d="M54.93 33.76a4.33 4.33 0 0 0-.47-1.81c-1-2-4-8-6.62-12.74-3.47-6.28-9.85-17-10.6-18a2.56 2.56 0 0 0-1-.9l-.48 1.17c.17.136.319.298.44.48.62.86 6.65 10.84 10.51 17.84 2.73 5 5.43 10.24 6.58 12.68.203.362.323.766.35 1.18l1.29.1z"/>
            <path fill="url(#m)" d="M19.59.34l.5 1.2a1.35 1.35 0 0 1 .45-.12c.48 0 4.26-.14 7.39-.14 2.55 0 5.14 0 6.43.11.143.01.287.01.43 0a2.66 2.66 0 0 1 .75 0 .6.6 0 0 1 .24.12l.49-1.17a2.6 2.6 0 0 0-.88-.17c-1-.09-5.23-.15-7.46-.15-2 0-6.5 0-7.56.15a2.72 2.72 0 0 0-.78.17z"/>
            <path fill="url(#n)" d="M19.59.34a2.59 2.59 0 0 0-1 .94c-.74 1-7.12 11.73-10.56 17.93-2.41 4.36-6.25 11.91-6.62 12.74a4.58 4.58 0 0 0-.47 1.81h1.27c.026-.44.146-.87.35-1.26 1.15-2.44 3.85-7.71 6.59-12.68 3.85-7 9.91-17 10.49-17.84a1.11 1.11 0 0 1 .46-.43L19.59.34z"/>
            <path fill="url(#o)" d="M36.26 67.19c.41-.2.757-.513 1-.9.69-.95 7.56-12.42 10.6-18s6.27-11.95 6.62-12.74a4.11 4.11 0 0 0 .47-1.82l-1.27-.08a3.21 3.21 0 0 1-.35 1.35c-1.15 2.43-3.85 7.7-6.58 12.67-3.86 7-9.86 16.94-10.48 17.79-.26.36-.37.46-.49.51l.48 1.22z"/>
            <path fill="#FFF" d="M34.79 1.38h.07a2 2 0 0 1-1.14.24c-1 0-3-.05-4.63-.06-3 0-6.56 0-8.23.12-.89 0-.94.14-1.5.74l.27-.44c.11-.187.269-.34.46-.44a1.35 1.35 0 0 1 .45-.12c.48 0 4.26-.14 7.39-.14 2.55 0 5.14 0 6.43.11.143.01.287.01.43 0"/>
            <circle cx="37.77" cy="34.05" r="18.64" fill="url(#p)"/>
            <path fill="#000" d="M35.53 32.45c-.11-.24-1.56-3.51-3.22-6.91-1.81-3.7-3.83-7.55-3.91-7.71-.08-.16-.29-.5-.47-.5s-.29.18-.46.5c-.08.16-2.15 4.13-3.92 7.71s-3.12 6.71-3.21 6.91a3.26 3.26 0 0 0-.38 1.3c.033.465.163.918.38 1.33.1.23 1.56 3.52 3.22 6.93 1.81 3.7 3.83 7.53 3.91 7.68.15.3.28.5.46.5s.3-.19.46-.5c.08-.16 2.09-4 3.9-7.68 1.66-3.4 3.12-6.68 3.23-6.93.5-.805.5-1.825 0-2.63h.01zm-.33 2.46s-1.5 3.39-3.22 6.92c-1.55 3.15-3.22 6.38-3.87 7.62v.05c-.06.13-.12.21-.14.21-.02 0-.08-.08-.14-.2l-.1-.19c-1.81-3.47-3.07-6-3.8-7.49-1.65-3.38-3.12-6.67-3.22-6.91a2.09 2.09 0 0 1 0-2.3l.08-.19c1-2.36 2.09-4.62 3.12-6.7 1.81-3.68 3.9-7.67 3.92-7.71.02-.04.11-.21.14-.21.03 0 .09.11.15.22s2 3.9 3.9 7.69c1.63 3.34 3.06 6.54 3.21 6.9.198.36.314.76.34 1.17a2.6 2.6 0 0 1-.37 1.12z"/>
            <path fill="#000" d="M54.47 32c-1-2-4-8.06-6.62-12.75-3.55-6.42-9.88-17-10.6-18A2 2 0 0 0 35.48.18h-.09c-1-.1-5-.15-7.46-.15-2.09 0-6.53 0-7.56.16a2.1 2.1 0 0 0-1.8 1.12c-.76 1-7.2 11.88-10.55 17.92-2.43 4.38-6.27 11.93-6.62 12.75a4.61 4.61 0 0 0-.47 1.81 4.38 4.38 0 0 0 .47 1.82c.8 1.75 3.23 6.58 6.62 12.74 3.53 6.43 9.92 17.05 10.59 18a2.07 2.07 0 0 0 1.83 1.07c1 .09 5.22.16 7.49.16 2.45 0 6.88-.1 7.49-.16a2.08 2.08 0 0 0 1.83-1.07c.64-.89 7.51-12.34 10.6-18 3-5.4 6.24-11.89 6.62-12.74a3.74 3.74 0 0 0 0-3.63V32zm-.34 3.48c-.38.84-3.66 7.32-6.61 12.72-3.08 5.63-9.93 17-10.57 17.93a1.75 1.75 0 0 1-1.56.93c-.61.05-5 .15-7.46.15-2.26 0-6.48-.07-7.45-.15a1.75 1.75 0 0 1-1.57-.93c-.67-.92-7-11.52-10.57-17.94-3.38-6.15-5.8-11-6.6-12.71a3.88 3.88 0 0 1-.45-1.67 4.18 4.18 0 0 1 .45-1.67c.35-.81 4.18-8.34 6.6-12.71 3.35-6 9.77-16.89 10.52-17.88.54-.69.73-.89 1.54-1 1-.1 5.45-.15 7.53-.15 2.43 0 6.47 0 7.42.15h.1c.61.07.89.09 1.5.92.61.83 7 11.51 10.57 17.93 2.59 4.68 5.63 10.68 6.61 12.73a3.9 3.9 0 0 1 .44 1.65 3.81 3.81 0 0 1-.44 1.65v.05z"/>
        </g>
    </g>
</svg>
