<svg xmlns="http://www.w3.org/2000/svg" width="120" height="86" viewBox="0 0 120 86">
    <g fill="#F00" fill-rule="nonzero">
        <path d="M11.32 69.13h6.29v-3.76h-17v3.76H6.9M6.87 85.18h4.45V69.13H6.87zM34.24 78.45a5.47 5.47 0 0 1-4.11 3.37 6.74 6.74 0 0 1-2.07 0A5.47 5.47 0 0 1 24 78.45a8.73 8.73 0 0 1 0-6.36 5.44 5.44 0 0 1 4.11-3.36 5.41 5.41 0 0 1 2.07 0 5.44 5.44 0 0 1 4.11 3.36 8.73 8.73 0 0 1 0 6.36h-.05zm-5.15-13.68c-5.799 0-10.5 4.701-10.5 10.5s4.701 10.5 10.5 10.5 10.5-4.701 10.5-10.5a10.49 10.49 0 0 0-10.5-10.5zM39.7 65.36H45l4.9 8.53 4.91-8.53H60l-7.93 12.49v7.33h-4.45v-7.33l-7.93-12.49M75.74 78.45a5.47 5.47 0 0 1-4.11 3.37 6 6 0 0 1-2.07 0 5.47 5.47 0 0 1-4.11-3.37 8.73 8.73 0 0 1 0-6.36 5.44 5.44 0 0 1 4.11-3.36 5.41 5.41 0 0 1 2.07 0 5.44 5.44 0 0 1 4.11 3.36 8.73 8.73 0 0 1 0 6.36zM70.6 64.77c-5.799 0-10.5 4.701-10.5 10.5s4.701 10.5 10.5 10.5 10.5-4.701 10.5-10.5a10.49 10.49 0 0 0-10.5-10.5zM92.83 69.13h6.28v-3.76h-17v3.76h6.29M88.37 69.13v16.05h4.46V69.13M105.71 77.35l2.92-7.82 2.92 7.82h-5.84zm5.69-12h-5.54l-8 19.81h4.95l1.63-4.36h8.44l1.62 4.36h4.95l-8-19.81h-.05zM63.3 53.54c4.31-3.28 7.43-12.81 7.43-24.06v-1.39c12.67-1.88 21.76-7 21.76-13.08 0-.271-.02-.542-.06-.81a20.5 20.5 0 0 1 5.09 13.19c0 13.72-15 25-34.21 26.15h-.01zM22.48 27.39a20.54 20.54 0 0 1 5.08-13.19c-.02.27-.02.54 0 .81 0 6 9.09 11.2 21.76 13.08v1.39c0 11.25 3.12 20.78 7.44 24.06-19.17-1.17-34.21-12.43-34.21-26.15h-.07zm47.65-6.3c-1.46-9.85-5.45-16.92-10.14-16.92s-8.66 7.07-10.14 16.92c-8.92-1.39-15.15-4.56-15.15-8.25 0-5 11.32-9 25.29-9 13.97 0 25.3 4 25.3 9 0 3.69-6.23 6.86-15.16 8.25zm-16.43.48c1-6.28 3.43-10.72 6.29-10.72s5.31 4.44 6.29 10.72a70.529 70.529 0 0 1-12.58 0zM60 44.63c-3.62 0-6.57-7.11-6.75-16.06 2.18.19 4.44.3 6.75.3 2.31 0 4.58-.11 6.75-.3-.18 8.95-3.13 16.06-6.75 16.06zM79.53 3A65.09 65.09 0 0 0 60 .2 65 65 0 0 0 40.46 3C26 7.62 16.07 17.28 16.07 28.43c0 15.7 19.66 28.42 43.92 28.42s43.93-12.72 43.93-28.42c0-11.15-9.94-20.8-24.39-25.45V3z"/>
    </g>
</svg>
