<svg xmlns="http://www.w3.org/2000/svg" width="20" height="20" viewBox="0 0 20 20">
    <path fill="#000" fill-rule="nonzero" d="M16.536 11.368l-.824-.235A7.03 7.03 0 1 0 2.969 7.03a7.01 7.01 0 0 0 1.32 4.102l-.825.235C.831 12.121 0 14.515 0 15.961v1.003A3.04 3.04 0 0 0 3.036 20h13.928A3.04 3.04 0 0 0 20 16.964v-1.003c0-1.416-.81-3.834-3.464-4.593zM10 1.875a5.156 5.156 0 1 1 0 10.313 5.156 5.156 0 0 1 0-10.313zm8.125 15.09c0 .64-.52 1.16-1.16 1.16H3.034a1.16 1.16 0 0 1-1.16-1.16V15.96c0-1.295.859-2.434 2.105-2.79l1.8-.515A7.013 7.013 0 0 0 10 14.062c2.17 0 3.645-.974 4.22-1.406l1.8.515a2.902 2.902 0 0 1 2.105 2.79v1.003z"/>
</svg>
